<mxfile host="app.diagrams.net" modified="2023-04-16T03:17:07.649Z" agent="Mozilla/5.0 (Windows NT 10.0; Win64; x64) AppleWebKit/537.36 (KHTML, like Gecko) Chrome/111.0.0.0 Safari/537.36" etag="gbkx2g-IbJt2NheYGld7" version="21.1.8" type="device">
  <diagram name="PÃ¡gina-1" id="cmj0NQqaNp0GE5N0b2E-">
    <mxGraphModel dx="421" dy="391" grid="1" gridSize="10" guides="1" tooltips="1" connect="1" arrows="1" fold="1" page="1" pageScale="1" pageWidth="1169" pageHeight="827" math="0" shadow="0">
      <root>
        <mxCell id="0" />
        <mxCell id="1" parent="0" />
        <mxCell id="PSMVLkH49k-55gyDgHu4-1" value="Usuario" style="swimlane;fontStyle=1;align=center;verticalAlign=top;childLayout=stackLayout;horizontal=1;startSize=26;horizontalStack=0;resizeParent=1;resizeParentMax=0;resizeLast=0;collapsible=1;marginBottom=0;whiteSpace=wrap;html=1;" vertex="1" parent="1">
          <mxGeometry x="240" y="40" width="160" height="170" as="geometry" />
        </mxCell>
        <mxCell id="PSMVLkH49k-55gyDgHu4-2" value="- id: Long;&lt;br&gt;- nome: String;&lt;br&gt;- senha: String;&lt;br&gt;- tipo: String;" style="text;strokeColor=none;fillColor=none;align=left;verticalAlign=top;spacingLeft=4;spacingRight=4;overflow=hidden;rotatable=0;points=[[0,0.5],[1,0.5]];portConstraint=eastwest;whiteSpace=wrap;html=1;" vertex="1" parent="PSMVLkH49k-55gyDgHu4-1">
          <mxGeometry y="26" width="160" height="64" as="geometry" />
        </mxCell>
        <mxCell id="PSMVLkH49k-55gyDgHu4-3" value="" style="line;strokeWidth=1;fillColor=none;align=left;verticalAlign=middle;spacingTop=-1;spacingLeft=3;spacingRight=3;rotatable=0;labelPosition=right;points=[];portConstraint=eastwest;strokeColor=inherit;" vertex="1" parent="PSMVLkH49k-55gyDgHu4-1">
          <mxGeometry y="90" width="160" height="8" as="geometry" />
        </mxCell>
        <mxCell id="PSMVLkH49k-55gyDgHu4-4" value="+ getId(): Long;&lt;br&gt;+ getNome(): String;&lt;br&gt;+ getSenha(): String;&lt;br&gt;+ getTipo(): String" style="text;strokeColor=none;fillColor=none;align=left;verticalAlign=top;spacingLeft=4;spacingRight=4;overflow=hidden;rotatable=0;points=[[0,0.5],[1,0.5]];portConstraint=eastwest;whiteSpace=wrap;html=1;" vertex="1" parent="PSMVLkH49k-55gyDgHu4-1">
          <mxGeometry y="98" width="160" height="72" as="geometry" />
        </mxCell>
        <mxCell id="PSMVLkH49k-55gyDgHu4-9" value="Musica" style="swimlane;fontStyle=1;align=center;verticalAlign=top;childLayout=stackLayout;horizontal=1;startSize=26;horizontalStack=0;resizeParent=1;resizeParentMax=0;resizeLast=0;collapsible=1;marginBottom=0;whiteSpace=wrap;html=1;" vertex="1" parent="1">
          <mxGeometry x="720" y="40" width="210" height="240" as="geometry" />
        </mxCell>
        <mxCell id="PSMVLkH49k-55gyDgHu4-10" value="- id: Long;&lt;br&gt;- nome: String;&lt;br&gt;- artista: String;&lt;br&gt;- dataLancamento: String;&lt;br&gt;- genero: String;&lt;br&gt;- proprietario: Usuario;" style="text;strokeColor=none;fillColor=none;align=left;verticalAlign=top;spacingLeft=4;spacingRight=4;overflow=hidden;rotatable=0;points=[[0,0.5],[1,0.5]];portConstraint=eastwest;whiteSpace=wrap;html=1;" vertex="1" parent="PSMVLkH49k-55gyDgHu4-9">
          <mxGeometry y="26" width="210" height="104" as="geometry" />
        </mxCell>
        <mxCell id="PSMVLkH49k-55gyDgHu4-11" value="" style="line;strokeWidth=1;fillColor=none;align=left;verticalAlign=middle;spacingTop=-1;spacingLeft=3;spacingRight=3;rotatable=0;labelPosition=right;points=[];portConstraint=eastwest;strokeColor=inherit;" vertex="1" parent="PSMVLkH49k-55gyDgHu4-9">
          <mxGeometry y="130" width="210" height="8" as="geometry" />
        </mxCell>
        <mxCell id="PSMVLkH49k-55gyDgHu4-12" value="+ getId(): Long;&lt;br&gt;+ getNome(): String;&lt;br&gt;+ getArtista(): String;&lt;br&gt;+ getDataLancamento(): String;&lt;br&gt;+ getGenero(): String;&lt;br&gt;+ getProprietario: Usuario;" style="text;strokeColor=none;fillColor=none;align=left;verticalAlign=top;spacingLeft=4;spacingRight=4;overflow=hidden;rotatable=0;points=[[0,0.5],[1,0.5]];portConstraint=eastwest;whiteSpace=wrap;html=1;" vertex="1" parent="PSMVLkH49k-55gyDgHu4-9">
          <mxGeometry y="138" width="210" height="102" as="geometry" />
        </mxCell>
        <mxCell id="PSMVLkH49k-55gyDgHu4-13" value="usuarioDao" style="swimlane;fontStyle=1;align=center;verticalAlign=top;childLayout=stackLayout;horizontal=1;startSize=26;horizontalStack=0;resizeParent=1;resizeParentMax=0;resizeLast=0;collapsible=1;marginBottom=0;whiteSpace=wrap;html=1;" vertex="1" parent="1">
          <mxGeometry x="240" y="240" width="190" height="160" as="geometry" />
        </mxCell>
        <mxCell id="PSMVLkH49k-55gyDgHu4-14" value="- em: EntityManager;" style="text;strokeColor=none;fillColor=none;align=left;verticalAlign=top;spacingLeft=4;spacingRight=4;overflow=hidden;rotatable=0;points=[[0,0.5],[1,0.5]];portConstraint=eastwest;whiteSpace=wrap;html=1;" vertex="1" parent="PSMVLkH49k-55gyDgHu4-13">
          <mxGeometry y="26" width="190" height="26" as="geometry" />
        </mxCell>
        <mxCell id="PSMVLkH49k-55gyDgHu4-15" value="" style="line;strokeWidth=1;fillColor=none;align=left;verticalAlign=middle;spacingTop=-1;spacingLeft=3;spacingRight=3;rotatable=0;labelPosition=right;points=[];portConstraint=eastwest;strokeColor=inherit;" vertex="1" parent="PSMVLkH49k-55gyDgHu4-13">
          <mxGeometry y="52" width="190" height="8" as="geometry" />
        </mxCell>
        <mxCell id="PSMVLkH49k-55gyDgHu4-16" value="+ inserir(Usuario): void;&lt;br&gt;+ alterar(Long, Usuario): void;&lt;br&gt;+ excluir(Long): void;&lt;br&gt;+ listar(): List&amp;lt;Usuario&amp;gt;;" style="text;strokeColor=none;fillColor=none;align=left;verticalAlign=top;spacingLeft=4;spacingRight=4;overflow=hidden;rotatable=0;points=[[0,0.5],[1,0.5]];portConstraint=eastwest;whiteSpace=wrap;html=1;" vertex="1" parent="PSMVLkH49k-55gyDgHu4-13">
          <mxGeometry y="60" width="190" height="100" as="geometry" />
        </mxCell>
        <mxCell id="PSMVLkH49k-55gyDgHu4-17" value="musicaDao" style="swimlane;fontStyle=1;align=center;verticalAlign=top;childLayout=stackLayout;horizontal=1;startSize=26;horizontalStack=0;resizeParent=1;resizeParentMax=0;resizeLast=0;collapsible=1;marginBottom=0;whiteSpace=wrap;html=1;" vertex="1" parent="1">
          <mxGeometry x="720" y="320" width="190" height="160" as="geometry" />
        </mxCell>
        <mxCell id="PSMVLkH49k-55gyDgHu4-18" value="- em: EntityManager;" style="text;strokeColor=none;fillColor=none;align=left;verticalAlign=top;spacingLeft=4;spacingRight=4;overflow=hidden;rotatable=0;points=[[0,0.5],[1,0.5]];portConstraint=eastwest;whiteSpace=wrap;html=1;" vertex="1" parent="PSMVLkH49k-55gyDgHu4-17">
          <mxGeometry y="26" width="190" height="26" as="geometry" />
        </mxCell>
        <mxCell id="PSMVLkH49k-55gyDgHu4-19" value="" style="line;strokeWidth=1;fillColor=none;align=left;verticalAlign=middle;spacingTop=-1;spacingLeft=3;spacingRight=3;rotatable=0;labelPosition=right;points=[];portConstraint=eastwest;strokeColor=inherit;" vertex="1" parent="PSMVLkH49k-55gyDgHu4-17">
          <mxGeometry y="52" width="190" height="8" as="geometry" />
        </mxCell>
        <mxCell id="PSMVLkH49k-55gyDgHu4-20" value="+ inserir(Musica): void;&lt;br&gt;+ alterar(Long, Musica): void;&lt;br&gt;+ excluir(Long): void;&lt;br&gt;+ listar(): List&amp;lt;Musica&amp;gt;;" style="text;strokeColor=none;fillColor=none;align=left;verticalAlign=top;spacingLeft=4;spacingRight=4;overflow=hidden;rotatable=0;points=[[0,0.5],[1,0.5]];portConstraint=eastwest;whiteSpace=wrap;html=1;" vertex="1" parent="PSMVLkH49k-55gyDgHu4-17">
          <mxGeometry y="60" width="190" height="100" as="geometry" />
        </mxCell>
      </root>
    </mxGraphModel>
  </diagram>
</mxfile>
